# xmcd CD database file
#
# Track frame offsets:
#	150
#	24988
#	47949
#	72851
#	98696
#	117418
#
# Disc length: 2573 seconds
#
# Revision: 0
# Processed by: cddbd v1.5.2PL0 Copyright (c) Steve Scherf et al.
# Submitted via: CDex 1.81
#
DISCID=490a0b06
DTITLE=The Modern Jazz Quartet - More From The Last Concert
DYEAR=2009
DGENRE=Jazz
TTITLE0=Really True Blues [Live at Avery Fisher Hall, 1974]
TTITLE1=Tears From The Children [Live at Avery Fisher Hall, 1974]
TTITLE2=Blues In H [B] [Live at Avery Fisher Hall, 1974]
TTITLE3=England's Carol [Live at Avery Fisher Hall, 1974]
TTITLE4=The Jasmine Tree [Live at Avery Fisher Hall, 1974]
TTITLE5=In Memoriam [Live at Avery Fisher Hall, 1974]
EXTD=YEAR: 2009
EXTT0=
EXTT1=
EXTT2=
EXTT3=
EXTT4=
EXTT5=
PLAYORDER=
